<?xml version="1.0" standalone="no"?><!DOCTYPE svg PUBLIC "-//W3C//DTD SVG 1.1//EN" "http://www.w3.org/Graphics/SVG/1.1/DTD/svg11.dtd"><svg t="1650450217161" class="icon" viewBox="0 0 1024 1024" version="1.1" xmlns="http://www.w3.org/2000/svg" p-id="5428" xmlns:xlink="http://www.w3.org/1999/xlink" width="128" height="128"><defs><style type="text/css">@font-face { font-family: "feedback-iconfont"; src: url("//at.alicdn.com/t/font_1031158_u69w8yhxdu.woff2?t=1630033759944") format("woff2"), url("//at.alicdn.com/t/font_1031158_u69w8yhxdu.woff?t=1630033759944") format("woff"), url("//at.alicdn.com/t/font_1031158_u69w8yhxdu.ttf?t=1630033759944") format("truetype"); }
</style></defs><path d="M690.773333 138.965333A222.805333 222.805333 0 0 0 541.866667 207.36l-29.866667 30.976-29.866667-30.976a222.506667 222.506667 0 0 0-160.170666-68.693333c-125.056 0-225.962667 104.618667-225.962667 233.130666 0 61.610667 23.637333 120.746667 65.792 164.437334l327.168 339.328a32 32 0 0 0 46.08 0l327.168-339.328a236.970667 236.970667 0 0 0 65.792-164.437334c0-128.512-100.906667-233.130667-225.962667-233.130666l-11.221333 0.298666z m11.264 63.701334c89.173333 0 161.962667 75.477333 161.962667 169.130666l-0.298667 10.368a172.586667 172.586667 0 0 1-47.530666 109.653334L512 807.210667l-304.170667-315.392A172.970667 172.970667 0 0 1 160 371.797333c0-93.653333 72.789333-169.130667 161.962667-169.130666 42.666667 0 83.712 17.621333 114.090666 49.109333l52.906667 54.869333a32 32 0 0 0 46.08 0l52.906667-54.869333a158.506667 158.506667 0 0 1 114.090666-49.109333z" p-id="5429" fill="gray"></path></svg>